<?xml version="1.0" encoding="iso-8859-1"?>
<!-- Generator: Adobe Illustrator 25.0.0, SVG Export Plug-In . SVG Version: 6.00 Build 0)  -->
<svg version="1.1" baseProfile="basic" id="Layer_1"
	 xmlns="http://www.w3.org/2000/svg" xmlns:xlink="http://www.w3.org/1999/xlink" x="0px" y="0px" viewBox="0 0 64 64"
	 xml:space="preserve">
<path d="M53.29,16.4c1.085,0.844,1.71,2.142,1.71,3.517v29.155c0,1.104-0.908,1.901-1.892,1.901c-0.319,0-0.647-0.084-0.954-0.269
	C50.013,49.413,46.801,48,43,48c-2.973,0-5.404,0.902-7.219,1.939c-1.173,0.671-2.477,1.007-3.781,1.007s-2.608-0.336-3.781-1.007
	C26.404,48.902,23.973,48,21,48c-3.801,0-7.013,1.413-9.154,2.705c-0.307,0.185-0.634,0.269-0.954,0.269
	C9.908,50.974,9,50.176,9,49.072V19.917c0-1.375,0.625-2.673,1.71-3.517C12.59,14.938,16.02,13,21,13c8,0,11,4,11,4s3-4,11-4
	C47.98,13,51.41,14.938,53.29,16.4z M51,45.65V19.692c0,0-3.009-2.692-8-2.692c-6.985,0-11,5.925-11,5.925S27.979,17,21,17
	c-4.972,0-8,2.722-8,2.722V45.65c2.215-0.919,4.939-1.65,8-1.65c7.011,0,11,3.125,11,3.125S36.007,44,43,44
	C46.061,44,48.785,44.731,51,45.65z"/>
<path d="M34,18v32h-4V18H34z"/>
</svg>